<svg width="292" height="70" viewBox="0 0 292 70" fill="none" xmlns="http://www.w3.org/2000/svg">
<path d="M69.24 49L74.16 21.76H78.32L85.44 41.2L92.6 21.76H96.72L101.68 49H96.88L94.8 36.32C94.5067 34.5333 94.2533 32.7733 94.04 31.04C93.8267 29.28 93.68 27.5067 93.6 25.72H94.84C94.36 27.7733 93.88 29.6267 93.4 31.28C92.92 32.9067 92.3733 34.5733 91.76 36.28L87.24 48.6H83.64L79.12 36.28C78.5067 34.5467 77.96 32.8667 77.48 31.24C77 29.6133 76.52 27.7733 76.04 25.72H77.28C77.2 27.5067 77.0533 29.28 76.84 31.04C76.6533 32.7733 76.4 34.5333 76.08 36.32L74 49H69.24ZM113.403 49.44C111.403 49.44 109.643 49.0133 108.123 48.16C106.603 47.3067 105.416 46.12 104.563 44.6C103.736 43.0533 103.323 41.28 103.323 39.28C103.323 37.2267 103.736 35.44 104.563 33.92C105.416 32.3733 106.603 31.1733 108.123 30.32C109.643 29.4667 111.403 29.04 113.403 29.04C115.403 29.04 117.163 29.4667 118.683 30.32C120.203 31.1733 121.376 32.3733 122.203 33.92C123.056 35.44 123.483 37.2267 123.483 39.28C123.483 41.28 123.056 43.0533 122.203 44.6C121.376 46.12 120.203 47.3067 118.683 48.16C117.163 49.0133 115.403 49.44 113.403 49.44ZM113.403 44.96C115.003 44.96 116.296 44.44 117.283 43.4C118.269 42.3333 118.763 40.9467 118.763 39.24C118.763 37.5333 118.269 36.16 117.283 35.12C116.296 34.0533 115.003 33.52 113.403 33.52C111.803 33.52 110.509 34.04 109.523 35.08C108.536 36.12 108.043 37.5067 108.043 39.24C108.043 40.9467 108.536 42.3333 109.523 43.4C110.509 44.44 111.803 44.96 113.403 44.96ZM143.234 29.48L135.954 49H131.514L123.874 29.48H128.874L134.154 44.52H133.274L138.314 29.48H143.234ZM150.103 49H145.463V29.48H150.103V49ZM144.863 23.4C144.863 22.5467 145.116 21.8533 145.623 21.32C146.156 20.76 146.876 20.48 147.783 20.48C148.636 20.48 149.329 20.76 149.863 21.32C150.396 21.8533 150.663 22.5467 150.663 23.4C150.663 24.2533 150.396 24.9467 149.863 25.48C149.329 26.0133 148.636 26.28 147.783 26.28C146.876 26.28 146.156 26.0133 145.623 25.48C145.116 24.9467 144.863 24.2533 144.863 23.4ZM162.632 49.4C160.712 49.4 159.032 48.9867 157.592 48.16C156.152 47.3067 155.019 46.12 154.192 44.6C153.392 43.08 152.992 41.3067 152.992 39.28C152.992 37.2267 153.392 35.44 154.192 33.92C155.019 32.3733 156.152 31.1733 157.592 30.32C159.032 29.4667 160.712 29.04 162.632 29.04C164.579 29.04 166.272 29.48 167.712 30.36C169.179 31.2133 170.312 32.4133 171.112 33.96C171.912 35.48 172.312 37.24 172.312 39.24C172.312 39.48 172.299 39.72 172.272 39.96C172.272 40.2 172.259 40.4133 172.232 40.6H157.072V36.88H168.792L167.832 39C167.832 37.16 167.406 35.6533 166.552 34.48C165.699 33.3067 164.406 32.72 162.672 32.72C161.099 32.72 159.846 33.2133 158.912 34.2C158.006 35.16 157.552 36.44 157.552 38.04V40.16C157.552 41.8133 158.006 43.1333 158.912 44.12C159.846 45.08 161.126 45.56 162.752 45.56C164.219 45.56 165.352 45.2533 166.152 44.64C166.979 44.0267 167.686 43.2667 168.272 42.36L171.592 44.36C170.712 46.0133 169.539 47.2667 168.072 48.12C166.606 48.9733 164.792 49.4 162.632 49.4ZM194.594 49L177.954 27.08L180.274 26.44V49H175.634V21.76H179.714L195.874 43.04L194.034 43.16V21.76H198.674V49H194.594ZM212.215 49.44C210.215 49.44 208.455 49.0133 206.935 48.16C205.415 47.3067 204.229 46.12 203.375 44.6C202.549 43.0533 202.135 41.28 202.135 39.28C202.135 37.2267 202.549 35.44 203.375 33.92C204.229 32.3733 205.415 31.1733 206.935 30.32C208.455 29.4667 210.215 29.04 212.215 29.04C214.215 29.04 215.975 29.4667 217.495 30.32C219.015 31.1733 220.189 32.3733 221.015 33.92C221.869 35.44 222.295 37.2267 222.295 39.28C222.295 41.28 221.869 43.0533 221.015 44.6C220.189 46.12 219.015 47.3067 217.495 48.16C215.975 49.0133 214.215 49.44 212.215 49.44ZM212.215 44.96C213.815 44.96 215.109 44.44 216.095 43.4C217.082 42.3333 217.575 40.9467 217.575 39.24C217.575 37.5333 217.082 36.16 216.095 35.12C215.109 34.0533 213.815 33.52 212.215 33.52C210.615 33.52 209.322 34.04 208.335 35.08C207.349 36.12 206.855 37.5067 206.855 39.24C206.855 40.9467 207.349 42.3333 208.335 43.4C209.322 44.44 210.615 44.96 212.215 44.96ZM232.207 49.36C230.341 49.36 228.861 48.8533 227.767 47.84C226.701 46.8 226.167 45.1733 226.167 42.96V29.72V29.48L227.047 24.96H230.807V42.56C230.807 43.36 231.007 43.9467 231.407 44.32C231.807 44.6933 232.327 44.88 232.967 44.88C233.394 44.88 233.781 44.8533 234.127 44.8C234.474 44.7467 234.781 44.68 235.047 44.6V48.92C234.647 49.0533 234.221 49.16 233.767 49.24C233.341 49.32 232.821 49.36 232.207 49.36ZM223.167 33.72V29.48H235.047V33.72H223.167ZM243.29 49H238.65V29.48H243.29V49ZM238.05 23.4C238.05 22.5467 238.304 21.8533 238.81 21.32C239.344 20.76 240.064 20.48 240.97 20.48C241.824 20.48 242.517 20.76 243.05 21.32C243.584 21.8533 243.85 22.5467 243.85 23.4C243.85 24.2533 243.584 24.9467 243.05 25.48C242.517 26.0133 241.824 26.28 240.97 26.28C240.064 26.28 239.344 26.0133 238.81 25.48C238.304 24.9467 238.05 24.2533 238.05 23.4ZM256.06 49.44C254.06 49.44 252.313 49 250.82 48.12C249.353 47.24 248.206 46.04 247.38 44.52C246.58 43 246.18 41.24 246.18 39.24C246.18 37.24 246.58 35.48 247.38 33.96C248.206 32.4133 249.353 31.2133 250.82 30.36C252.313 29.48 254.06 29.04 256.06 29.04C258.06 29.04 259.833 29.56 261.38 30.6C262.953 31.64 264.086 33.0267 264.78 34.76L260.46 36.64C260.06 35.6267 259.473 34.8533 258.7 34.32C257.926 33.7867 257.02 33.52 255.98 33.52C254.54 33.52 253.326 34.0267 252.34 35.04C251.38 36.0267 250.9 37.4267 250.9 39.24C250.9 41.0267 251.38 42.4267 252.34 43.44C253.326 44.4533 254.54 44.96 255.98 44.96C257.02 44.96 257.926 44.6933 258.7 44.16C259.473 43.6267 260.06 42.8533 260.46 41.84L264.78 43.68C264.06 45.4133 262.913 46.8133 261.34 47.88C259.793 48.92 258.033 49.44 256.06 49.44ZM275.176 49.4C273.256 49.4 271.576 48.9867 270.136 48.16C268.696 47.3067 267.563 46.12 266.736 44.6C265.936 43.08 265.536 41.3067 265.536 39.28C265.536 37.2267 265.936 35.44 266.736 33.92C267.563 32.3733 268.696 31.1733 270.136 30.32C271.576 29.4667 273.256 29.04 275.176 29.04C277.123 29.04 278.816 29.48 280.256 30.36C281.723 31.2133 282.856 32.4133 283.656 33.96C284.456 35.48 284.856 37.24 284.856 39.24C284.856 39.48 284.843 39.72 284.816 39.96C284.816 40.2 284.803 40.4133 284.776 40.6H269.616V36.88H281.336L280.376 39C280.376 37.16 279.949 35.6533 279.096 34.48C278.243 33.3067 276.949 32.72 275.216 32.72C273.643 32.72 272.389 33.2133 271.456 34.2C270.549 35.16 270.096 36.44 270.096 38.04V40.16C270.096 41.8133 270.549 43.1333 271.456 44.12C272.389 45.08 273.669 45.56 275.296 45.56C276.763 45.56 277.896 45.2533 278.696 44.64C279.523 44.0267 280.229 43.2667 280.816 42.36L284.136 44.36C283.256 46.0133 282.083 47.2667 280.616 48.12C279.149 48.9733 277.336 49.4 275.176 49.4Z" fill="#4B422F"/>
<path d="M18.8115 61V51.9561H9.76855C7.68758 51.9561 6.00017 50.2694 6 48.1885V20.2559C6.00047 16.5404 9.97542 14.1778 13.2393 15.9531L28.0215 23.9961C30.2672 25.218 32.9789 25.2179 35.2246 23.9961L47.957 17.0684C48.5074 18.5268 49.477 19.7792 50.7178 20.6807H49.71V24.4492H53.4785V21.9619C54.0823 22.1094 54.7131 22.1885 55.3623 22.1885C56.0115 22.1885 56.6424 22.1093 57.2461 21.9619V48.1885C57.2459 50.2694 55.5594 51.956 53.4785 51.9561H31.623L18.8115 61ZM9.76855 47.0576H13.5361V43.29H9.76855V47.0576ZM49.71 47.0576H53.4785V43.29H49.71V47.0576ZM9.76855 39.5215H13.5361V35.7529H9.76855V39.5215ZM49.71 39.5215H53.4785V35.7529H49.71V39.5215ZM9.76855 31.9854H13.5361V28.2168H9.76855V31.9854ZM49.71 31.9854H53.4785V28.2168H49.71V31.9854ZM9.76855 24.4492H13.5361V20.6807H9.76855V24.4492ZM55.3623 9C58.2758 9 60.6377 11.3619 60.6377 14.2754C60.6377 17.1889 58.2758 19.5508 55.3623 19.5508C52.4489 19.5506 50.0869 17.1888 50.0869 14.2754C50.0869 11.362 52.4489 9.00013 55.3623 9Z" fill="#4B422F"/>
</svg>
